<svg width="430" height="405" viewBox="0 0 430 405" fill="none" xmlns="http://www.w3.org/2000/svg">
<path d="M169.71 333.023C169.71 322.473 170.28 312.209 169.71 301.659C169.14 290.54 172.845 280.845 180.539 273.147C198.777 254.899 217.3 237.222 235.539 219.259C245.228 209.85 254.347 199.871 264.036 190.462C273.725 180.768 283.984 171.644 293.673 161.949C305.927 149.689 317.896 137.429 330.149 125.169C346.393 109.202 362.636 92.9499 378.595 76.983C386.289 69.2847 386.004 59.0203 378.31 51.8923C373.18 47.3303 364.916 46.1898 359.217 50.1815C354.372 53.603 350.098 57.5947 345.823 61.8715C338.984 68.7145 332.144 75.8425 325.305 82.6855C319.035 88.9582 312.481 95.516 306.212 101.789C300.227 107.491 294.243 113.194 288.258 118.896C281.704 125.454 275.15 132.012 268.595 138.284C261.756 144.842 255.202 151.4 248.362 158.243C240.953 165.656 233.544 173.639 225.849 181.053C216.16 190.462 206.186 199.586 196.497 208.995C186.238 218.974 176.834 229.523 166.575 239.503C156.316 249.482 144.917 256.61 130.099 258.606C111.005 260.602 93.3372 256.61 78.8036 243.494C58.8555 225.532 54.011 203.007 60.5654 177.916C63.1301 168.222 68.8296 159.383 76.2388 151.97C83.6481 144.557 83.9331 137.144 76.8088 129.446C60.8503 112.908 44.3219 96.3713 28.3635 79.5491C20.6692 71.5657 12.9749 64.1525 6.42056 55.3137C-1.55867 44.194 -1.84364 31.6486 4.14078 19.6734C9.84023 7.41318 19.8143 1.14049 33.493 0.570245C36.9126 0.285122 40.6173 0.570245 44.0369 0.570245C65.1249 0.285122 85.9279 0 106.731 0C119.555 0 130.669 3.70659 139.788 13.6859C151.187 26.2313 163.725 37.9213 175.694 50.1815C180.824 55.3137 185.668 61.0162 191.083 65.8633C201.912 75.8425 199.062 95.516 190.513 103.214C180.254 112.338 170.85 122.317 161.161 132.012C150.047 143.131 138.933 154.536 127.819 165.941C121.549 172.214 115.28 178.201 109.296 184.474C107.016 187.04 105.306 190.462 104.451 193.598C102.456 201.867 104.736 206.999 111.575 211.276C117.845 214.982 125.539 214.697 131.524 209.565C138.648 203.007 145.487 196.164 152.327 189.321C178.544 163.375 204.477 137.429 230.694 111.768C258.051 84.6813 285.409 57.8798 312.766 30.7932C318.466 25.3759 324.165 19.9586 330.149 14.8264C339.553 6.55781 350.952 3.99171 362.921 2.5661C374.035 1.14049 384.864 3.99171 394.838 8.26855C401.678 11.4049 408.517 16.252 413.646 21.9544C431.315 41.6279 435.304 70.9955 422.481 94.9457C419.631 100.363 415.356 105.78 410.797 110.057C376.6 143.987 342.403 178.201 307.922 211.846C299.942 219.829 296.238 228.953 296.238 239.788C295.953 267.445 295.668 295.387 295.383 323.044C295.098 337.585 295.383 352.126 295.098 366.382C294.813 378.642 291.678 389.477 280.564 396.605C274.01 400.882 267.17 403.733 259.476 404.018C243.233 404.303 226.704 404.589 210.461 404.303C198.492 404.018 187.378 401.452 179.114 391.758C173.414 385.2 169.995 377.502 169.995 368.378C169.71 356.688 169.71 344.713 169.71 333.023Z" fill="black"/>
</svg>
